<?xml version="1.0" encoding="utf-8"?>
<!-- Generator: Adobe Illustrator 15.0.2, SVG Export Plug-In . SVG Version: 6.00 Build 0)  -->
<!DOCTYPE svg PUBLIC "-//W3C//DTD SVG 1.1//EN" "http://www.w3.org/Graphics/SVG/1.1/DTD/svg11.dtd">
<svg version="1.1" xmlns="http://www.w3.org/2000/svg" xmlns:xlink="http://www.w3.org/1999/xlink" x="0px" y="0px"
	 width="48.401px" height="44.919px" viewBox="0 0 48.401 44.919" enable-background="new 0 0 48.401 44.919" xml:space="preserve">
	<path fill="#476e2e" d="M14.879,20.701c0.042,0.721,0.083,1.442,0.125,2.16c0.025,0.406-0.264,1.459-0.824,1.193
		c-0.493-0.233-1.016-0.383-1.37-0.809c-0.452-0.537-0.904-1.076-1.353-1.614c-0.285-0.292-0.131-0.422-0.255-0.851
		c0.049-0.324-0.038-0.289,0.262-0.529c0.778-0.384,1.557-0.772,2.333-1.156C14.034,18.974,14.724,20.444,14.879,20.701
		L14.879,20.701z"/>
	<path fill="#476e2e" d="M48.121,41.632c0.246,1.125-0.026-0.112,0.28,1.267c-0.455,1.064-0.944-0.165-1.417-0.247
		c-0.294-0.052-0.592,0.812-0.743,1.089c-0.066,0.12-0.657,1.338-0.741,1.32c-0.474-0.104-0.95-0.206-1.423-0.311
		c-2.052-0.446-3.749-1.237-5.654-2.127c-0.801-0.375-1.589-0.824-2.417-1.133c-0.893-0.333-1.671-0.377-2.409-1.012
		c-0.793-0.68-1.542-1.091-2.465-1.552c-1.014-0.507-1.361-0.845-2.038-1.841c0.657-0.61,1.314-1.225,1.971-1.834
		c0.546-0.506,3.709-3.113,2.75-3.123c-0.875,0.927-3.528,1.749-4.623,2.116c-0.393,0.134-0.726-0.032-1.101-0.124
		c-0.514-0.12-0.227-0.762-0.168-1.322c-0.334-0.485-0.908,1.341-1.36,2.014c-0.294,0.431-1.156-0.327-1.5-0.507
		c-0.495-0.26-0.796-0.927-1.129-1.393c-0.331-0.47-1.336-0.445-1.482-0.839c-0.122-0.438,1.354-0.845,1.384-1.111
		c0.085-0.705,0.43-1.878,0.253-2.114c-0.377-0.293-1.835,1.088-2.243,0.665c-0.049-0.053-0.404-2.172-0.438-2.368
		c-0.073-0.424-0.145-0.846-0.219-1.269c-0.055-0.308-0.39-0.041-0.627,0.04c-0.98,0.335-1.228,0.432-1.923,1.328
		c-0.279,0.094-1.01-1.99-1.281-1.96c-0.355-0.096-0.717,2.011-0.968,1.717c-0.664-0.757-0.533-0.935-0.38-2.088
		c0.143-1.076,0.005-1.525,0.825-2.129c1.244-0.921,2.978-0.67,4.363-0.858c0.238-0.123-0.738-0.451-1.063-0.442
		c-0.378,0.013-0.931-0.078-1.429-0.013c-0.425,0.059-1.777-0.37-2.152-0.576c-0.773-0.421-0.543-1.249-0.593-2.252
		c-0.008-0.162,0.049-0.942-0.081-1.026c-0.403-0.246-0.804-0.498-1.206-0.749c-0.297-0.185-1.48,1.391-1.926,1.419
		c-0.481,0.032-0.962,0.059-1.442,0.091c-0.411,0.025-0.495-0.425-0.7-0.785c-0.113-0.196-0.522-0.646-0.409-0.905
		c0.263-0.602,0.525-1.205,0.789-1.805c0.182-0.418,0.341-0.509,0.045-0.746c-0.376-0.304-0.753-0.609-1.128-0.91
		c-0.019,0.337,0.088,1.182-0.073,1.474c-0.101,0.182-0.818,0.601-0.915,0.442c-0.294-0.487-0.589-0.977-0.883-1.463
		c-0.218-0.363,0.549-1.413,0.232-1.229c-0.549,0.408-1.333,1.313-1.648,1.223c-0.167-0.309-0.067-1.235-0.237-1.071
		c-0.458,0.471-0.916,0.938-1.375,1.408c-0.477,0.489-0.771,0.012-1.248-0.276c-0.329-0.242,1.885-2.164,1.602-3.001
		C5.12,10.035,4.65,10.255,4.294,9.623C4.098,9.27,3.959,9.212,4.196,8.592c0.242-0.633,0.305-0.753,0.871-0.809
		c0.715-0.068,1.08-0.585,1.797-0.656C7.352,7.078,7.52,6.941,7.778,7.361C8.12,7.916,9.646,8.929,9.99,9.481
		c1.847,0.302-2.021-3.565-2.485-3.41c-1.458,0.477-2.916,0.96-4.374,1.442C2.387,7.759,1.285,5.601,0.838,5.027
		C0.561,4.669-0.097,1.829,0.012,1.778C1.104,1.252,2.437,0.29,3.57,0.064c1.155-0.23,2.156,0.201,3.122,0.67
		C7.73,1.239,8.765,1.606,9.599,2.449c0.77,0.771,1.544,1.968,2.57,2.304c1.25,0.407,2.522,0.776,3.755,1.235
		c0.978,0.363,2.014,1.146,3.067,1.239c1.104,0.098,2.666-0.124,3.582,0.521c0.945,0.667,2.066,1.421,3.269,1.468
		c0.384,0.019,1.253-0.485,1.56-0.279c0.269,0.186,1.376,0.665,1.427,1.006c0.231,1.55,0.537,2.57,1.131,3.939
		c0.198,0.457,0.491,0.926,0.588,1.438c0.102,0.539,0.101,1.278,0.417,1.685c0.858,1.108,1.716,2.213,2.575,3.317
		c0.003,0.006,0.005,0.01,0.008,0.012c0.139,0.137-0.919,0.536-0.984,0.756c-0.065,0.205,0.378,0.984,0.447,1.168
		c0.268,0.691,0.429,1.576,0.963,2.028c0.785,0.677,1.57,1.346,2.355,2.018c0.529,0.453,1.41,0.23,2.049,0.438
		c0.756,0.244,1.482,0.774,2.19,1.142c0.361,0.19,1.779,0.602,1.827,1.104c0.03,0.316-0.033,1.138,0.13,1.37
		c0.213,0.305,0.929,0.112,1.18,0.384c0.254,0.275,0.357,1.071,0.486,1.453c0.098,0.289-0.622,0.548-0.851,0.687
		c0.455,0.55,0.908,1.099,1.361,1.649c0.39,0.469,0.898,0.86,1.016,1.522c0.126,0.695,0.474,1.616,0.415,2.348
		c-0.068,0.856-0.138,1.718-0.206,2.576c0.338-0.322,0.689-0.492,0.719-0.977c0.033-0.555,0.068-1.495,0.185-1.579
		c0.814,0.015,0.67-0.098,0.833,0.776C47.818,40.009,47.968,40.821,48.121,41.632L48.121,41.632z"/>
</svg>
